# xmcd
# 
# Track frame offsets:
#     150
#     32207
#     52299
#     73174
#     95445
# 
# Disc length: 1588
# 
# Revision: 0
# Processed by: cddbd v1.5.2PL0 Copyright (c) Steve Scherf et al.
# Submitted via: BonkEnc v1.0.8
# 
DISCID=48063205
DTITLE=Justin Gambino - Where I Belong
DYEAR=2017
DGENRE=Christian Rock
TTITLE0=If I Seek and Find
TTITLE1=Where I Belong
TTITLE2=I'll Become
TTITLE3=Your Hands and Feet
TTITLE4=For You, My Heart - Acoustic
EXTD=
EXTT0=
EXTT1=
EXTT2=
EXTT3=
EXTT4=
PLAYORDER=
